<svg width="28" height="30" viewBox="0 0 28 30" fill="none" xmlns="http://www.w3.org/2000/svg">
<mask id="mask0_90_1031" style="mask-type:luminance" maskUnits="userSpaceOnUse" x="7" y="9" width="21" height="21">
<path d="M7.09082 9.39991H27.372V30H7.09082V9.39991Z" fill="white"/>
</mask>
<g mask="url(#mask0_90_1031)">
<path d="M26.6418 21.3208C27.0397 21.3208 27.3648 20.9896 27.3648 20.5854V18.8093C27.3648 18.4052 27.0397 18.0739 26.6418 18.0739H25.8901C25.4922 18.0739 25.0717 17.7573 24.9548 17.3718L24.3138 15.7906C24.1251 15.4343 24.201 14.9093 24.4831 14.6239L25.0143 14.0833C25.2953 13.7979 25.2963 13.3301 25.0143 13.0447L23.7775 11.7885C23.4965 11.502 23.036 11.502 22.754 11.7885L22.2228 12.3281C21.9407 12.6145 21.4239 12.6916 21.0731 12.4999L19.5174 11.8489C19.1369 11.7301 18.8261 11.302 18.8261 10.8978V10.1353C18.8261 9.73116 18.5 9.39991 18.1021 9.39991H16.3536C15.9556 9.39991 15.6295 9.73116 15.6295 10.1353V10.8978C15.6295 11.302 15.3177 11.7301 14.9383 11.8489L13.3815 12.4999C13.0318 12.6916 12.5139 12.6135 12.2329 12.3281L11.7017 11.7874C11.4197 11.502 10.9592 11.502 10.6782 11.7874L9.44137 13.0447C9.15935 13.3301 9.15935 13.7979 9.44137 14.0833L9.97363 14.6239C10.2546 14.9093 10.3305 15.4343 10.1428 15.7906L9.50188 17.3718C9.38497 17.7573 8.96347 18.0739 8.56556 18.0739H7.81486C7.41694 18.0739 7.09082 18.4041 7.09082 18.8083V20.5854C7.09082 20.9896 7.41694 21.3208 7.81486 21.3208H8.56556C8.96347 21.3208 9.38497 21.6364 9.50188 22.0229L10.1428 23.6042C10.3315 23.9594 10.2546 24.4854 9.97363 24.7708L9.44137 25.3115C9.16037 25.5969 9.16037 26.0646 9.44137 26.35L10.6782 27.6063C10.9592 27.8927 11.4197 27.8917 11.7017 27.6063L12.2329 27.0656C12.5149 26.7802 13.0318 26.7031 13.3825 26.8948L14.9383 27.5459C15.3188 27.6646 15.6295 28.0917 15.6295 28.4959V29.2594C15.6295 29.6636 15.9556 29.9938 16.3536 29.9938H18.1031C18.501 29.9938 18.8261 29.6636 18.8261 29.2594V28.4959C18.8261 28.0917 19.1369 27.6646 19.5174 27.5448L21.0741 26.8948C21.4239 26.7031 21.9418 26.7802 22.2228 27.0656L22.755 27.6063C23.036 27.8927 23.4965 27.8917 23.7775 27.6063L25.0143 26.35C25.2963 26.0646 25.2963 25.5969 25.0143 25.3104L24.4831 24.7708C24.201 24.4844 24.1251 23.9594 24.3138 23.6031L24.9548 22.0229C25.0717 21.6364 25.4922 21.3208 25.8911 21.3208H26.6418ZM17.2273 23.9333C14.9239 23.9333 13.0574 22.0364 13.0574 19.6969C13.0574 17.3573 14.9239 15.4614 17.2273 15.4614C19.5307 15.4614 21.3982 17.3573 21.3982 19.6969C21.3982 22.0364 19.5307 23.9333 17.2273 23.9333Z" fill="black"/>
</g>
<mask id="mask1_90_1031" style="mask-type:luminance" maskUnits="userSpaceOnUse" x="0" y="0" width="25" height="26">
<path d="M0 -3.8147e-05H24.5659V25.0001H0V-3.8147e-05Z" fill="white"/>
</mask>
<g mask="url(#mask1_90_1031)">
<path d="M23.6697 14.4261C24.1517 14.4261 24.5455 14.0251 24.5455 13.5365V11.3844C24.5455 10.8948 24.1517 10.4938 23.6697 10.4938H22.76C22.278 10.4938 21.7683 10.1105 21.6258 9.64275L20.8494 7.72815C20.6218 7.2969 20.7141 6.66148 21.0545 6.31564L21.6986 5.66147C22.0391 5.31459 22.0401 4.74897 21.6986 4.40209L20.2003 2.88124C19.8598 2.53437 19.3019 2.53437 18.9614 2.88124L18.3174 3.53542C17.9769 3.88125 17.3503 3.975 16.9257 3.74271L15.0407 2.95416C14.5803 2.81041 14.2039 2.2927 14.2039 1.80311V0.879148C14.2039 0.389562 13.809 -0.0114822 13.327 -0.0114822H11.2083C10.7263 -0.0114822 10.3324 0.389562 10.3324 0.879148V1.80311C10.3324 2.2927 9.95505 2.81041 9.49458 2.95416L7.60962 3.74271C7.18505 3.975 6.55947 3.88125 6.21898 3.53437L5.57494 2.8802C5.23344 2.53437 4.67656 2.53437 4.33506 2.8802L2.83673 4.40209C2.49625 4.74792 2.49625 5.31459 2.83673 5.66043L3.4818 6.3146C3.82228 6.66148 3.91458 7.2969 3.68691 7.72815L2.91057 9.64275C2.76802 10.1105 2.25833 10.4938 1.77632 10.4938H0.866661C0.384654 10.4938 -0.00915527 10.8938 -0.00915527 11.3834V13.5365C-0.00915527 14.0251 0.384654 14.4261 0.866661 14.4261H1.77632C2.25833 14.4261 2.76802 14.8084 2.91057 15.2761L3.68691 17.1918C3.91458 17.622 3.82228 18.2584 3.4818 18.6043L2.83776 19.2595C2.49625 19.6053 2.49625 20.1709 2.83776 20.5178L4.33506 22.0397C4.67656 22.3855 5.23344 22.3855 5.57494 22.0397L6.21898 21.3845C6.55947 21.0387 7.18607 20.9449 7.61065 21.1772L9.49458 21.9657C9.95607 22.1095 10.3324 22.6272 10.3324 23.1168V24.0408C10.3324 24.5303 10.7273 24.9314 11.2083 24.9314H13.327C13.809 24.9314 14.2039 24.5303 14.2039 24.0408V23.1168C14.2039 22.6272 14.5803 22.1095 15.0407 21.9647L16.9257 21.1772C17.3503 20.9449 17.9769 21.0387 18.3174 21.3845L18.9624 22.0397C19.3029 22.3855 19.8608 22.3855 20.2013 22.0397L21.6986 20.5178C22.0401 20.172 22.0401 19.6053 21.6986 19.2584L21.0545 18.6043C20.7141 18.2584 20.6218 17.622 20.8504 17.1907L21.6258 15.2761C21.7673 14.8084 22.278 14.4261 22.76 14.4261H23.6697ZM12.2677 17.5907C9.47817 17.5907 7.21684 15.2938 7.21684 12.4605C7.21684 9.62608 9.47817 7.32919 12.2677 7.32919C15.0571 7.32919 17.3195 9.62608 17.3195 12.4605C17.3195 15.2938 15.0571 17.5907 12.2677 17.5907Z" fill="#D02332"/>
</g>
</svg>
