<svg width="150" height="30" viewBox="0 0 150 30" fill="none" xmlns="http://www.w3.org/2000/svg">
<mask id="mask0_20_833" style="mask-type:luminance" maskUnits="userSpaceOnUse" x="7" y="9" width="21" height="21">
<path d="M7.09082 9.39991H27.372V30H7.09082V9.39991Z" fill="white"/>
</mask>
<g mask="url(#mask0_20_833)">
<path d="M26.6418 21.3208C27.0397 21.3208 27.3648 20.9896 27.3648 20.5854V18.8093C27.3648 18.4052 27.0397 18.0739 26.6418 18.0739H25.8901C25.4922 18.0739 25.0717 17.7573 24.9548 17.3718L24.3138 15.7906C24.1251 15.4343 24.201 14.9093 24.4831 14.6239L25.0143 14.0833C25.2953 13.7979 25.2963 13.3301 25.0143 13.0447L23.7775 11.7885C23.4965 11.502 23.036 11.502 22.754 11.7885L22.2228 12.3281C21.9407 12.6145 21.4239 12.6916 21.0731 12.4999L19.5174 11.8489C19.1369 11.7301 18.8261 11.302 18.8261 10.8978V10.1353C18.8261 9.73116 18.5 9.39991 18.1021 9.39991H16.3536C15.9556 9.39991 15.6295 9.73116 15.6295 10.1353V10.8978C15.6295 11.302 15.3177 11.7301 14.9383 11.8489L13.3815 12.4999C13.0318 12.6916 12.5139 12.6135 12.2329 12.3281L11.7017 11.7874C11.4197 11.502 10.9592 11.502 10.6782 11.7874L9.44137 13.0447C9.15935 13.3301 9.15935 13.7979 9.44137 14.0833L9.97363 14.6239C10.2546 14.9093 10.3305 15.4343 10.1428 15.7906L9.50188 17.3718C9.38497 17.7573 8.96347 18.0739 8.56556 18.0739H7.81486C7.41694 18.0739 7.09082 18.4041 7.09082 18.8083V20.5854C7.09082 20.9896 7.41694 21.3208 7.81486 21.3208H8.56556C8.96347 21.3208 9.38497 21.6364 9.50188 22.0229L10.1428 23.6042C10.3315 23.9594 10.2546 24.4854 9.97363 24.7708L9.44137 25.3115C9.16037 25.5969 9.16037 26.0646 9.44137 26.35L10.6782 27.6063C10.9592 27.8927 11.4197 27.8917 11.7017 27.6063L12.2329 27.0656C12.5149 26.7802 13.0318 26.7031 13.3825 26.8948L14.9383 27.5459C15.3188 27.6646 15.6295 28.0917 15.6295 28.4959V29.2594C15.6295 29.6636 15.9556 29.9938 16.3536 29.9938H18.1031C18.501 29.9938 18.8261 29.6636 18.8261 29.2594V28.4959C18.8261 28.0917 19.1369 27.6646 19.5174 27.5448L21.0741 26.8948C21.4239 26.7031 21.9418 26.7802 22.2228 27.0656L22.755 27.6063C23.036 27.8927 23.4965 27.8917 23.7775 27.6063L25.0143 26.35C25.2963 26.0646 25.2963 25.5969 25.0143 25.3104L24.4831 24.7708C24.201 24.4844 24.1251 23.9594 24.3138 23.6031L24.9548 22.0229C25.0717 21.6364 25.4922 21.3208 25.8911 21.3208H26.6418ZM17.2273 23.9333C14.9239 23.9333 13.0574 22.0364 13.0574 19.6969C13.0574 17.3573 14.9239 15.4614 17.2273 15.4614C19.5307 15.4614 21.3982 17.3573 21.3982 19.6969C21.3982 22.0364 19.5307 23.9333 17.2273 23.9333Z" fill="black"/>
</g>
<mask id="mask1_20_833" style="mask-type:luminance" maskUnits="userSpaceOnUse" x="0" y="0" width="25" height="26">
<path d="M0 -3.8147e-05H24.5659V25.0001H0V-3.8147e-05Z" fill="white"/>
</mask>
<g mask="url(#mask1_20_833)">
<path d="M23.6697 14.4261C24.1517 14.4261 24.5455 14.0251 24.5455 13.5365V11.3844C24.5455 10.8948 24.1517 10.4938 23.6697 10.4938H22.76C22.278 10.4938 21.7683 10.1105 21.6258 9.64275L20.8494 7.72815C20.6218 7.2969 20.7141 6.66148 21.0545 6.31564L21.6986 5.66147C22.0391 5.31459 22.0401 4.74897 21.6986 4.40209L20.2003 2.88124C19.8598 2.53437 19.3019 2.53437 18.9614 2.88124L18.3174 3.53542C17.9769 3.88125 17.3503 3.975 16.9257 3.74271L15.0407 2.95416C14.5803 2.81041 14.2039 2.2927 14.2039 1.80311V0.879148C14.2039 0.389562 13.809 -0.0114822 13.327 -0.0114822H11.2083C10.7263 -0.0114822 10.3324 0.389562 10.3324 0.879148V1.80311C10.3324 2.2927 9.95505 2.81041 9.49458 2.95416L7.60962 3.74271C7.18505 3.975 6.55947 3.88125 6.21898 3.53437L5.57494 2.8802C5.23344 2.53437 4.67656 2.53437 4.33506 2.8802L2.83673 4.40209C2.49625 4.74792 2.49625 5.31459 2.83673 5.66043L3.4818 6.3146C3.82228 6.66148 3.91458 7.2969 3.68691 7.72815L2.91057 9.64275C2.76802 10.1105 2.25833 10.4938 1.77632 10.4938H0.866661C0.384654 10.4938 -0.00915527 10.8938 -0.00915527 11.3834V13.5365C-0.00915527 14.0251 0.384654 14.4261 0.866661 14.4261H1.77632C2.25833 14.4261 2.76802 14.8084 2.91057 15.2761L3.68691 17.1918C3.91458 17.622 3.82228 18.2584 3.4818 18.6043L2.83776 19.2595C2.49625 19.6053 2.49625 20.1709 2.83776 20.5178L4.33506 22.0397C4.67656 22.3855 5.23344 22.3855 5.57494 22.0397L6.21898 21.3845C6.55947 21.0387 7.18607 20.9449 7.61065 21.1772L9.49458 21.9657C9.95607 22.1095 10.3324 22.6272 10.3324 23.1168V24.0408C10.3324 24.5303 10.7273 24.9314 11.2083 24.9314H13.327C13.809 24.9314 14.2039 24.5303 14.2039 24.0408V23.1168C14.2039 22.6272 14.5803 22.1095 15.0407 21.9647L16.9257 21.1772C17.3503 20.9449 17.9769 21.0387 18.3174 21.3845L18.9624 22.0397C19.3029 22.3855 19.8608 22.3855 20.2013 22.0397L21.6986 20.5178C22.0401 20.172 22.0401 19.6053 21.6986 19.2584L21.0545 18.6043C20.7141 18.2584 20.6218 17.622 20.8504 17.1907L21.6258 15.2761C21.7673 14.8084 22.278 14.4261 22.76 14.4261H23.6697ZM12.2677 17.5907C9.47817 17.5907 7.21684 15.2938 7.21684 12.4605C7.21684 9.62608 9.47817 7.32919 12.2677 7.32919C15.0571 7.32919 17.3195 9.62608 17.3195 12.4605C17.3195 15.2938 15.0571 17.5907 12.2677 17.5907Z" fill="#D02332"/>
</g>
<path d="M39.8723 20.3208C39.5082 20.6854 38.978 21.0146 38.2806 21.3083C37.5832 21.6021 36.7013 21.75 35.6347 21.75C34.122 21.75 32.8914 21.2365 31.9427 20.2083C30.9931 19.1812 30.5193 17.8437 30.5193 16.1958V15.8041C30.5193 14.1021 30.9869 12.7166 31.9222 11.65C32.8596 10.5833 34.082 10.0499 35.5896 10.0499C36.4644 10.0499 37.2643 10.1916 37.9894 10.4749C38.7165 10.7583 39.3205 11.1416 39.8025 11.625V13.9166H38.1411L37.8253 12.3916C37.6202 12.2145 37.3494 12.0729 37.013 11.9666C36.6787 11.8583 36.2931 11.8041 35.8562 11.8041C34.8768 11.8041 34.1149 12.1729 33.5713 12.9083C33.0298 13.6416 32.7591 14.6031 32.7591 15.7916V16.1958C32.7591 17.3521 33.0257 18.275 33.559 18.9667C34.0923 19.6563 34.8604 20 35.8644 20C36.3157 20 36.6808 19.9615 36.9597 19.8833C37.2407 19.8063 37.4612 19.7156 37.6202 19.6125V17.6792L36.0203 17.5542V15.9541H39.8723V20.3208Z" fill="black"/>
<path d="M46.3488 21.5875C46.2883 21.4458 46.2349 21.302 46.1888 21.1541C46.1416 21.0041 46.1047 20.8541 46.078 20.7041C45.8124 21.0187 45.4883 21.2708 45.1058 21.4625C44.7253 21.6541 44.2895 21.75 43.7972 21.75C42.9788 21.75 42.3307 21.525 41.8528 21.075C41.3738 20.625 41.1349 20.0125 41.1349 19.2375C41.1349 18.4458 41.4467 17.8333 42.0702 17.3999C42.6958 16.9666 43.6147 16.7499 44.8269 16.7499H45.9714V15.9249C45.9714 15.5166 45.8544 15.202 45.6227 14.9791C45.393 14.7541 45.0525 14.6416 44.6012 14.6416C44.3469 14.6416 44.1182 14.6728 43.9162 14.7333C43.7162 14.7916 43.5552 14.8624 43.4321 14.9458L43.2885 15.8541H41.5943L41.6025 13.9791C42.0128 13.6957 42.4825 13.4582 43.0137 13.2666C43.5439 13.0749 44.1223 12.9791 44.7489 12.9791C45.7796 12.9791 46.6164 13.2364 47.2594 13.7499C47.9045 14.2614 48.2276 14.9905 48.2276 15.9374V19.4291C48.2276 19.5604 48.2276 19.6833 48.2276 19.8C48.2296 19.9145 48.2399 20.0229 48.2563 20.125L48.9413 20.2208V21.5875H46.3488ZM44.4043 20.0625C44.7407 20.0625 45.0463 19.9895 45.3232 19.8416C45.6022 19.6916 45.8175 19.5062 45.9714 19.2833V17.9916H44.8269C44.3479 17.9916 43.9859 18.1062 43.7398 18.3333C43.4936 18.5614 43.3706 18.8333 43.3706 19.1499C43.3706 19.4364 43.4619 19.6604 43.6454 19.8208C43.828 19.9822 44.0813 20.0625 44.4043 20.0625Z" fill="black"/>
<path d="M49.8695 20.2208L50.9484 19.9875V14.7416L49.7546 14.5083V13.1332H53.0405L53.1389 14.3666C53.3358 13.9312 53.5871 13.5905 53.8937 13.3457C54.2024 13.102 54.5593 12.9791 54.9644 12.9791C55.0813 12.9791 55.2044 12.9895 55.3336 13.0082C55.4649 13.0249 55.5736 13.0457 55.6618 13.0707L55.4239 15.1499L54.5009 15.1249C54.1727 15.1249 53.8999 15.1905 53.6845 15.3208C53.4712 15.452 53.3071 15.6364 53.1923 15.8749V19.9875L54.2711 20.2208V21.5875H49.8695V20.2208Z" fill="black"/>
<path d="M61.6336 21.5875C61.5731 21.4458 61.5198 21.302 61.4736 21.1541C61.4265 21.0041 61.3895 20.8541 61.3629 20.7041C61.0973 21.0187 60.7732 21.2708 60.3907 21.4625C60.0102 21.6541 59.5743 21.75 59.0821 21.75C58.2637 21.75 57.6155 21.525 57.1376 21.075C56.6587 20.625 56.4197 20.0125 56.4197 19.2375C56.4197 18.4458 56.7315 17.8333 57.355 17.3999C57.9806 16.9666 58.8995 16.7499 60.1117 16.7499H61.2562V15.9249C61.2562 15.5166 61.1393 15.202 60.9075 14.9791C60.6778 14.7541 60.3373 14.6416 59.8861 14.6416C59.6317 14.6416 59.4031 14.6728 59.201 14.7333C59.001 14.7916 58.84 14.8624 58.717 14.9458L58.5734 15.8541H56.8792L56.8874 13.9791C57.2976 13.6957 57.7673 13.4582 58.2985 13.2666C58.8287 13.0749 59.4072 12.9791 60.0338 12.9791C61.0644 12.9791 61.9013 13.2364 62.5443 13.7499C63.1894 14.2614 63.5124 14.9905 63.5124 15.9374V19.4291C63.5124 19.5604 63.5124 19.6833 63.5124 19.8C63.5145 19.9145 63.5247 20.0229 63.5411 20.125L64.2262 20.2208V21.5875H61.6336ZM59.6892 20.0625C60.0256 20.0625 60.3312 19.9895 60.6081 19.8416C60.887 19.6916 61.1024 19.5062 61.2562 19.2833V17.9916H60.1117C59.6328 17.9916 59.2708 18.1062 59.0246 18.3333C58.7785 18.5614 58.6554 18.8333 58.6554 19.1499C58.6554 19.4364 58.7467 19.6604 58.9303 19.8208C59.1128 19.9822 59.3661 20.0625 59.6892 20.0625Z" fill="black"/>
<path d="M65.1265 17.4291C65.1265 16.0958 65.4116 15.0208 65.9838 14.2041C66.5551 13.3874 67.356 12.9791 68.3877 12.9791C68.8554 12.9791 69.2656 13.0853 69.6184 13.2957C69.9711 13.5072 70.2727 13.8072 70.5249 14.1958L70.689 13.1332H72.6417V21.3375C72.6417 22.451 72.295 23.3396 71.6038 24.0041C70.9146 24.6677 69.9681 25 68.7651 25C68.3436 25 67.8965 24.9417 67.4237 24.825C66.953 24.7083 66.5181 24.5479 66.1192 24.3458L66.5335 22.7458C66.8914 22.901 67.2493 23.0229 67.6083 23.1125C67.9693 23.2041 68.3487 23.25 68.7487 23.25C69.2984 23.25 69.7086 23.0802 69.9793 22.7416C70.2501 22.4052 70.3855 21.9343 70.3855 21.3291V20.775C70.1393 21.0916 69.8491 21.3333 69.5158 21.5C69.1846 21.6666 68.803 21.75 68.3713 21.75C67.3509 21.75 66.5551 21.3698 65.9838 20.6083C65.4116 19.8447 65.1265 18.8406 65.1265 17.5958V17.4291ZM67.3704 17.5958C67.3704 18.3354 67.4934 18.9166 67.7396 19.3416C67.9857 19.7666 68.3856 19.9791 68.9415 19.9791C69.2861 19.9791 69.5773 19.9156 69.8153 19.7875C70.0532 19.6604 70.2429 19.4739 70.3855 19.2291V15.5541C70.2429 15.302 70.0532 15.1041 69.8153 14.9624C69.5773 14.8208 69.2912 14.7499 68.9579 14.7499C68.4082 14.7499 68.0062 14.9989 67.7519 15.4958C67.4975 15.9906 67.3704 16.6353 67.3704 17.4291V17.5958Z" fill="black"/>
<path d="M77.9667 21.75C76.7689 21.75 75.81 21.3604 75.0911 20.5792C74.3742 19.799 74.0163 18.8073 74.0163 17.6042V17.2917C74.0163 16.0364 74.3547 15.0031 75.0336 14.1916C75.7146 13.3781 76.6263 12.9739 77.7698 12.9791C78.8907 12.9791 79.7614 13.3239 80.3829 14.0125C81.0033 14.6989 81.3141 15.6281 81.3141 16.8V18.0417H76.3463L76.3299 18.0875C76.3709 18.6458 76.5535 19.1042 76.8796 19.4625C77.2047 19.8208 77.6478 20 78.2087 20C78.703 20 79.1153 19.95 79.4435 19.85C79.7717 19.7479 80.1306 19.5865 80.5224 19.3667L81.1295 20.775C80.7849 21.05 80.3388 21.2823 79.7922 21.4708C79.2476 21.6563 78.6395 21.75 77.9667 21.75ZM77.7698 14.7375C77.3534 14.7375 77.0252 14.8989 76.7853 15.2208C76.5443 15.5437 76.3956 15.9666 76.3381 16.4916L76.3627 16.5333H79.1153V16.3291C79.1153 15.8458 79.0025 15.4604 78.7789 15.1708C78.5574 14.8823 78.221 14.7375 77.7698 14.7375Z" fill="black"/>
<path d="M90.1088 11.5875L89.2555 11.7416L91.241 18.5625L91.3805 19.1875H91.4256L91.5569 18.5792L93.5464 11.7416L92.7014 11.5875V10.2124H96.7954V11.5875L95.856 11.7125L92.5578 21.5875H90.2483L86.9419 11.7125L86.0189 11.5875V10.2124H90.1088V11.5875Z" fill="black"/>
<path d="M100.28 21.5875H98.0399V19.5875H100.28V21.5875Z" fill="black"/>
<path d="M110.679 10.2124C111.961 10.2124 112.973 10.5479 113.715 11.2166C114.455 11.8864 114.826 12.7625 114.826 13.8458C114.826 14.9354 114.455 15.8104 113.715 16.4708C112.973 17.1323 111.961 17.4625 110.679 17.4625H108.788V19.9875L109.99 20.2208V21.5875H105.35V20.2208L106.544 19.9875V11.8208L105.35 11.5875V10.2124H110.679ZM108.788 15.7042H110.679C111.305 15.7042 111.779 15.5323 112.098 15.1875C112.421 14.8406 112.583 14.3989 112.583 13.8625C112.583 13.3156 112.421 12.8645 112.098 12.5083C111.779 12.15 111.305 11.9708 110.679 11.9708H108.788V15.7042Z" fill="black"/>
<path d="M115.595 17.2833C115.595 16.0228 115.942 14.9905 116.637 14.1874C117.331 13.3822 118.291 12.9791 119.517 12.9791C120.748 12.9791 121.71 13.3812 122.405 14.1833C123.102 14.9833 123.451 16.0166 123.451 17.2833V17.4458C123.451 18.7187 123.102 19.7541 122.405 20.5541C121.71 21.352 120.753 21.75 119.533 21.75C118.297 21.75 117.331 21.352 116.637 20.5541C115.942 19.7541 115.595 18.7187 115.595 17.4458V17.2833ZM117.843 17.4458C117.843 18.2187 117.976 18.8374 118.241 19.3041C118.509 19.7687 118.94 20 119.533 20C120.113 20 120.536 19.7666 120.805 19.3C121.076 18.8312 121.211 18.2124 121.211 17.4458V17.2833C121.211 16.5333 121.074 15.9228 120.801 15.4499C120.53 14.9749 120.101 14.7374 119.517 14.7374C118.934 14.7374 118.509 14.9749 118.241 15.4499C117.976 15.9228 117.843 16.5333 117.843 17.2833V17.4458Z" fill="black"/>
<path d="M124.357 20.2208L125.444 19.9875V14.7416L124.242 14.5083V13.1333H127.688V19.9875L128.767 20.2208V21.5875H124.357V20.2208ZM127.688 11.1124H125.444V9.39991H127.688V11.1124Z" fill="black"/>
<path d="M129.672 20.2208L130.751 19.9875V14.7416L129.557 14.5083V13.1332H132.843L132.941 14.3666C133.138 13.9312 133.39 13.5905 133.696 13.3457C134.005 13.102 134.362 12.9791 134.767 12.9791C134.884 12.9791 135.007 12.9895 135.136 13.0082C135.267 13.0249 135.376 13.0457 135.464 13.0707L135.226 15.1499L134.303 15.1249C133.975 15.1249 133.702 15.1905 133.487 15.3208C133.274 15.452 133.11 15.6364 132.995 15.8749V19.9875L134.074 20.2208V21.5875H129.672V20.2208Z" fill="black"/>
<path d="M136.135 17.2833C136.135 16.0228 136.482 14.9905 137.177 14.1874C137.871 13.3822 138.831 12.9791 140.057 12.9791C141.288 12.9791 142.249 13.3812 142.945 14.1833C143.642 14.9833 143.991 16.0166 143.991 17.2833V17.4458C143.991 18.7187 143.642 19.7541 142.945 20.5541C142.249 21.352 141.293 21.75 140.073 21.75C138.836 21.75 137.871 21.352 137.177 20.5541C136.482 19.7541 136.135 18.7187 136.135 17.4458V17.2833ZM138.383 17.4458C138.383 18.2187 138.515 18.8374 138.781 19.3041C139.049 19.7687 139.479 20 140.073 20C140.653 20 141.076 19.7666 141.345 19.3C141.616 18.8312 141.751 18.2124 141.751 17.4458V17.2833C141.751 16.5333 141.614 15.9228 141.341 15.4499C141.07 14.9749 140.641 14.7374 140.057 14.7374C139.474 14.7374 139.049 14.9749 138.781 15.4499C138.515 15.9228 138.383 16.5333 138.383 17.2833V17.4458Z" fill="black"/>
<path d="M148.277 11.0625V13.1333H149.742V14.7375H148.277V19.0417C148.277 19.3698 148.344 19.6042 148.478 19.7458C148.611 19.8854 148.791 19.9542 149.016 19.9542C149.171 19.9542 149.307 19.949 149.422 19.9375C149.537 19.924 149.665 19.9 149.807 19.8667L150 21.5167C149.748 21.5938 149.5 21.6521 149.253 21.6917C149.007 21.7302 148.741 21.75 148.454 21.75C147.679 21.75 147.083 21.5354 146.665 21.1042C146.249 20.6709 146.041 19.9865 146.041 19.05V14.7375H144.819V13.1333H146.041V11.0625H148.277Z" fill="black"/>
</svg>
